<svg width="133" height="101" viewBox="0 0 133 101" fill="none" xmlns="http://www.w3.org/2000/svg">
<mask id="path-1-outside-1_1_3" maskUnits="userSpaceOnUse" x="0" y="0" width="133" height="101" fill="black">
<rect fill="white" width="133" height="101"/>
<path d="M5.376 99H3.84L42.112 9.39999L43.52 8.75999L75.776 99H64.896L54.912 70.84H17.536L5.376 99ZM38.144 23.224L18.048 69.56H54.528L38.144 23.224ZM59.401 99H57.865L96.137 9.39999L97.545 8.75999L129.801 99H118.921L108.937 70.84H71.561L59.401 99ZM92.169 23.224L72.073 69.56H108.553L92.169 23.224ZM121.49 16.056L119.954 16.44L119.698 16.056C121.575 15.544 123.111 14.5627 124.306 13.112C125.586 11.6613 126.226 9.95466 126.226 7.992C126.226 4.83466 125.031 3.256 122.642 3.256C120.594 3.256 118.375 3.768 115.986 4.79199L115.73 4.408C118.119 3.384 120.509 2.87199 122.898 2.87199C127.933 2.87199 130.45 4.62133 130.45 8.12C130.45 11.5333 127.847 14.0507 122.642 15.672C127.591 16.184 130.066 18.36 130.066 22.2C130.066 25.3573 128.445 28.1307 125.202 30.52C121.959 32.824 118.546 34.3173 114.962 35L114.834 34.488C117.565 33.8053 120.039 32.312 122.258 30.008C124.562 27.6187 125.714 25.2293 125.714 22.84C125.714 20.3653 125.287 18.6587 124.434 17.72C123.581 16.696 122.599 16.1413 121.49 16.056Z"/>
</mask>
<path d="M5.376 99H3.84L42.112 9.39999L43.52 8.75999L75.776 99H64.896L54.912 70.84H17.536L5.376 99ZM38.144 23.224L18.048 69.56H54.528L38.144 23.224ZM59.401 99H57.865L96.137 9.39999L97.545 8.75999L129.801 99H118.921L108.937 70.84H71.561L59.401 99ZM92.169 23.224L72.073 69.56H108.553L92.169 23.224ZM121.49 16.056L119.954 16.44L119.698 16.056C121.575 15.544 123.111 14.5627 124.306 13.112C125.586 11.6613 126.226 9.95466 126.226 7.992C126.226 4.83466 125.031 3.256 122.642 3.256C120.594 3.256 118.375 3.768 115.986 4.79199L115.73 4.408C118.119 3.384 120.509 2.87199 122.898 2.87199C127.933 2.87199 130.45 4.62133 130.45 8.12C130.45 11.5333 127.847 14.0507 122.642 15.672C127.591 16.184 130.066 18.36 130.066 22.2C130.066 25.3573 128.445 28.1307 125.202 30.52C121.959 32.824 118.546 34.3173 114.962 35L114.834 34.488C117.565 33.8053 120.039 32.312 122.258 30.008C124.562 27.6187 125.714 25.2293 125.714 22.84C125.714 20.3653 125.287 18.6587 124.434 17.72C123.581 16.696 122.599 16.1413 121.49 16.056Z" fill="black"/>
<path d="M5.376 99V101H6.69087L7.21213 99.7929L5.376 99ZM3.84 99L2.00076 98.2144L0.810903 101H3.84V99ZM42.112 9.39999L41.2844 7.57926L40.5777 7.90049L40.2728 8.61438L42.112 9.39999ZM43.52 8.75999L45.4033 8.08681L44.6715 6.03964L42.6924 6.93926L43.52 8.75999ZM75.776 99V101H78.6148L77.6593 98.3268L75.776 99ZM64.896 99L63.011 99.6683L63.4831 101H64.896V99ZM54.912 70.84L56.797 70.1717L56.3249 68.84H54.912V70.84ZM17.536 70.84V68.84H16.2211L15.6999 70.0471L17.536 70.84ZM38.144 23.224L40.0296 22.5573L38.3335 17.7605L36.3091 22.4282L38.144 23.224ZM18.048 69.56L16.2131 68.7642L15.0006 71.56H18.048V69.56ZM54.528 69.56V71.56H57.3565L56.4136 68.8933L54.528 69.56ZM5.376 99V97H3.84V99V101H5.376V99ZM3.84 99L5.67924 99.7856L43.9512 10.1856L42.112 9.39999L40.2728 8.61438L2.00076 98.2144L3.84 99ZM42.112 9.39999L42.9396 11.2207L44.3476 10.5807L43.52 8.75999L42.6924 6.93926L41.2844 7.57926L42.112 9.39999ZM43.52 8.75999L41.6367 9.43317L73.8927 99.6732L75.776 99L77.6593 98.3268L45.4033 8.08681L43.52 8.75999ZM75.776 99V97H64.896V99V101H75.776V99ZM64.896 99L66.781 98.3317L56.797 70.1717L54.912 70.84L53.027 71.5083L63.011 99.6683L64.896 99ZM54.912 70.84V68.84H17.536V70.84V72.84H54.912V70.84ZM17.536 70.84L15.6999 70.0471L3.53988 98.2071L5.376 99L7.21213 99.7929L19.3721 71.6329L17.536 70.84ZM38.144 23.224L36.3091 22.4282L16.2131 68.7642L18.048 69.56L19.8829 70.3558L39.9789 24.0198L38.144 23.224ZM18.048 69.56V71.56H54.528V69.56V67.56H18.048V69.56ZM54.528 69.56L56.4136 68.8933L40.0296 22.5573L38.144 23.224L36.2584 23.8907L52.6424 70.2267L54.528 69.56ZM59.401 99V101H60.7159L61.2371 99.7929L59.401 99ZM57.865 99L56.0258 98.2144L54.8359 101H57.865V99ZM96.137 9.39999L95.3094 7.57926L94.6027 7.90049L94.2978 8.61438L96.137 9.39999ZM97.545 8.75999L99.4283 8.08681L98.6966 6.03964L96.7174 6.93926L97.545 8.75999ZM129.801 99V101H132.64L131.684 98.3268L129.801 99ZM118.921 99L117.036 99.6683L117.508 101H118.921V99ZM108.937 70.84L110.822 70.1717L110.35 68.84H108.937V70.84ZM71.561 70.84V68.84H70.2461L69.7249 70.0471L71.561 70.84ZM92.169 23.224L94.0546 22.5573L92.3585 17.7605L90.3341 22.4282L92.169 23.224ZM72.073 69.56L70.2381 68.7642L69.0256 71.56H72.073V69.56ZM108.553 69.56V71.56H111.382L110.439 68.8933L108.553 69.56ZM59.401 99V97H57.865V99V101H59.401V99ZM57.865 99L59.7042 99.7856L97.9762 10.1856L96.137 9.39999L94.2978 8.61438L56.0258 98.2144L57.865 99ZM96.137 9.39999L96.9646 11.2207L98.3726 10.5807L97.545 8.75999L96.7174 6.93926L95.3094 7.57926L96.137 9.39999ZM97.545 8.75999L95.6617 9.43317L127.918 99.6732L129.801 99L131.684 98.3268L99.4283 8.08681L97.545 8.75999ZM129.801 99V97H118.921V99V101H129.801V99ZM118.921 99L120.806 98.3317L110.822 70.1717L108.937 70.84L107.052 71.5083L117.036 99.6683L118.921 99ZM108.937 70.84V68.84H71.561V70.84V72.84H108.937V70.84ZM71.561 70.84L69.7249 70.0471L57.5649 98.2071L59.401 99L61.2371 99.7929L73.3971 71.6329L71.561 70.84ZM92.169 23.224L90.3341 22.4282L70.2381 68.7642L72.073 69.56L73.9079 70.3558L94.0039 24.0198L92.169 23.224ZM72.073 69.56V71.56H108.553V69.56V67.56H72.073V69.56ZM108.553 69.56L110.439 68.8933L94.0546 22.5573L92.169 23.224L90.2834 23.8907L106.667 70.2267L108.553 69.56ZM121.49 16.056L121.643 14.0619L121.32 14.037L121.005 14.1157L121.49 16.056ZM119.954 16.44L118.29 17.5494L119.072 18.7221L120.439 18.3803L119.954 16.44ZM119.698 16.056L119.172 14.1265L116.495 14.8566L118.034 17.1654L119.698 16.056ZM124.306 13.112L122.806 11.7888L122.784 11.8143L122.762 11.8406L124.306 13.112ZM115.986 4.79199L114.322 5.9014L115.245 7.28561L116.774 6.63028L115.986 4.79199ZM115.73 4.408L114.942 2.56971L112.732 3.51684L114.066 5.51741L115.73 4.408ZM122.642 15.672L122.047 13.7625L122.436 17.6614L122.642 15.672ZM125.202 30.52L126.36 32.1504L126.374 32.1404L126.388 32.1301L125.202 30.52ZM114.962 35L113.022 35.4851L113.48 37.3182L115.336 36.9647L114.962 35ZM114.834 34.488L114.349 32.5477L112.409 33.0328L112.894 34.9731L114.834 34.488ZM122.258 30.008L120.818 28.6197L120.817 28.6207L122.258 30.008ZM124.434 17.72L122.898 19.0004L122.925 19.0335L122.954 19.0653L124.434 17.72ZM121.49 16.056L121.005 14.1157L119.469 14.4997L119.954 16.44L120.439 18.3803L121.975 17.9963L121.49 16.056ZM119.954 16.44L121.618 15.3306L121.362 14.9466L119.698 16.056L118.034 17.1654L118.29 17.5494L119.954 16.44ZM119.698 16.056L120.224 17.9855C122.486 17.3688 124.382 16.1653 125.85 14.3834L124.306 13.112L122.762 11.8406C121.84 12.9601 120.665 13.7192 119.172 14.1265L119.698 16.056ZM124.306 13.112L125.806 14.4352C127.413 12.6134 128.226 10.4342 128.226 7.992H126.226H124.226C124.226 9.47514 123.759 10.7093 122.806 11.7888L124.306 13.112ZM126.226 7.992H128.226C128.226 6.21819 127.9 4.52229 126.925 3.23311C125.87 1.8388 124.318 1.256 122.642 1.256V3.256V5.256C123.355 5.256 123.596 5.46252 123.735 5.64688C123.954 5.93638 124.226 6.60847 124.226 7.992H126.226ZM122.642 3.256V1.256C120.261 1.256 117.772 1.85067 115.198 2.9537L115.986 4.79199L116.774 6.63028C118.979 5.68532 120.927 5.256 122.642 5.256V3.256ZM115.986 4.79199L117.65 3.68258L117.394 3.29859L115.73 4.408L114.066 5.51741L114.322 5.9014L115.986 4.79199ZM115.73 4.408L116.518 6.24629C118.68 5.31951 120.803 4.87199 122.898 4.87199V2.87199V0.871994C120.215 0.871994 117.558 1.44848 114.942 2.56971L115.73 4.408ZM122.898 2.87199V4.87199C125.245 4.87199 126.65 5.29096 127.421 5.82637C128.059 6.26997 128.45 6.91852 128.45 8.12H130.45H132.45C132.45 5.8228 131.582 3.84735 129.703 2.54162C127.956 1.32769 125.585 0.871994 122.898 0.871994V2.87199ZM130.45 8.12H128.45C128.45 9.24897 128.046 10.223 127.108 11.1304C126.116 12.0896 124.489 13.0018 122.047 13.7625L122.642 15.672L123.237 17.5815C126 16.7209 128.278 15.5637 129.888 14.0056C131.553 12.3957 132.45 10.4044 132.45 8.12H130.45ZM122.642 15.672L122.436 17.6614C124.696 17.8952 126.086 18.4838 126.889 19.1899C127.622 19.8341 128.066 20.7502 128.066 22.2H130.066H132.066C132.066 19.8098 131.273 17.7179 129.531 16.1861C127.859 14.7162 125.537 13.9608 122.848 13.6826L122.642 15.672ZM130.066 22.2H128.066C128.066 24.5503 126.903 26.7827 124.016 28.9099L125.202 30.52L126.388 32.1301C129.987 29.4787 132.066 26.1643 132.066 22.2H130.066ZM125.202 30.52L124.044 28.8896C121.014 31.0424 117.865 32.4112 114.588 33.0353L114.962 35L115.336 36.9647C119.227 36.2235 122.905 34.6056 126.36 32.1504L125.202 30.52ZM114.962 35L116.902 34.5149L116.774 34.0029L114.834 34.488L112.894 34.9731L113.022 35.4851L114.962 35ZM114.834 34.488L115.319 36.4283C118.462 35.6427 121.256 33.9318 123.699 31.3953L122.258 30.008L120.817 28.6207C118.823 30.6922 116.668 31.968 114.349 32.5477L114.834 34.488ZM122.258 30.008L123.698 31.3963C126.22 28.781 127.714 25.9205 127.714 22.84H125.714H123.714C123.714 24.5382 122.904 26.4563 120.818 28.6197L122.258 30.008ZM125.714 22.84H127.714C127.714 20.2779 127.301 17.901 125.914 16.3747L124.434 17.72L122.954 19.0653C123.273 19.4163 123.714 20.4527 123.714 22.84H125.714ZM124.434 17.72L125.97 16.4396C124.845 15.0891 123.396 14.1967 121.643 14.0619L121.49 16.056L121.337 18.0501C121.803 18.086 122.316 18.3029 122.898 19.0004L124.434 17.72Z" fill="white" mask="url(#path-1-outside-1_1_3)"/>
</svg>
