<?xml version="1.0" encoding="UTF-8"?>
<svg version="1.1" xmlns="http://www.w3.org/2000/svg" width="500" height="500">
<path d="M0 0 C2.17033516 2.30598111 2.94730404 3.82694215 3.08984375 7 C2.85921375 10.21699279 2.45420191 12.47850892 0.3125 14.9375 C-2.53509559 16.24585473 -4.86789405 16.80424338 -8 17 C-9.34136367 16.34964186 -10.67532254 15.6837045 -12 15 C-18.14297044 15 -22.8115948 19.96194324 -27.046875 23.90625 C-33.0284861 30.11970649 -36.46757717 37.2397086 -40 45 C-39.030625 45.31710938 -38.06125 45.63421875 -37.0625 45.9609375 C-26.40493986 49.61223798 -17.27111918 54.62826499 -8 61 C-7.19046875 61.55300781 -6.3809375 62.10601562 -5.546875 62.67578125 C-5.03640625 63.11277344 -4.5259375 63.54976563 -4 64 C-4 64.66 -4 65.32 -4 66 C-3.34 66 -2.68 66 -2 66 C-2 66.66 -2 67.32 -2 68 C-1.34 68 -0.68 68 0 68 C0 68.66 0 69.32 0 70 C0.66 70 1.32 70 2 70 C3.67986821 71.90042645 5.22312684 73.79396015 6.75 75.8125 C7.19666016 76.39837891 7.64332031 76.98425781 8.10351562 77.58789062 C12.43830351 83.39060958 16.6105412 89.59555049 18.8046875 96.55078125 C20.42589465 99.87266649 22.5735982 101.14928976 25.625 103.1875 C27.44798849 104.41297941 29.24905829 105.67361773 31 107 C31 107.66 31 108.32 31 109 C31.66 109 32.32 109 33 109 C33 109.66 33 110.32 33 111 C33.57105469 111.24621094 34.14210938 111.49242187 34.73046875 111.74609375 C56.45863133 123.75081008 70.01671554 157.07922034 76.7734375 179.5625 C87.17041777 216.04425935 82.37289647 256.35712439 64.19018555 289.63793945 C56.87149419 302.47307482 47.58285297 313.71951425 37 324 C36.278125 324.763125 35.55625 325.52625 34.8125 326.3125 C33 328 33 328 31 328 C30.79632813 328.56332031 30.59265625 329.12664062 30.3828125 329.70703125 C28.48430375 332.85512344 25.84275976 334.63068099 22.875 336.6875 C22.25608887 337.12102783 21.63717773 337.55455566 20.99951172 338.0012207 C-5.5397392 356.24820005 -33.61441084 365.24585221 -65.8125 365.3125 C-66.8580304 365.31787781 -66.8580304 365.31787781 -67.92468262 365.32336426 C-97.75005046 365.4058566 -123.25870635 356.48645302 -148.5625 341.31640625 C-149.55443359 340.72194702 -149.55443359 340.72194702 -150.56640625 340.11547852 C-151.27603516 339.56331665 -151.27603516 339.56331665 -152 339 C-152 338.34 -152 337.68 -152 337 C-152.69996094 336.78214844 -153.39992187 336.56429688 -154.12109375 336.33984375 C-157.70515531 334.67182053 -160.25228399 332.27373985 -163.0625 329.5625 C-167.05794102 325.73494792 -167.05794102 325.73494792 -171.37109375 322.27734375 C-172.17740234 321.64505859 -172.17740234 321.64505859 -173 321 C-173 320.34 -173 319.68 -173 319 C-173.66 319 -174.32 319 -175 319 C-180 313.52380952 -180 313.52380952 -180 311 C-180.66 311 -181.32 311 -182 311 C-205.82988982 280.79240108 -217.09619911 242.32068485 -213.6875 203.9921875 C-211.10555218 182.27616208 -204.65699213 161.55041969 -193 143 C-192.35417969 141.95585937 -191.70835937 140.91171875 -191.04296875 139.8359375 C-185.45593449 130.92020703 -185.45593449 130.92020703 -183 128 C-182.34 128 -181.68 128 -181 128 C-180.60748047 127.13181641 -180.60748047 127.13181641 -180.20703125 126.24609375 C-177.10789615 120.47909478 -171.81624857 115.40342726 -167 111 C-166.34 111 -165.68 111 -165 111 C-165 110.34 -165 109.68 -165 109 C-162.13399313 106.75111218 -159.2268583 104.60057009 -156.24023438 102.515625 C-152.062184 99.41564151 -150.22261032 96.98178721 -148.68774414 92.02099609 C-147.53923238 88.6459942 -145.58878957 85.82731878 -143.625 82.875 C-143.25117188 82.29363281 -142.87734375 81.71226562 -142.4921875 81.11328125 C-139.91391031 77.16639801 -137.17320212 73.49158361 -134 70 C-133.34 70 -132.68 70 -132 70 C-132 69.34 -132 68.68 -132 68 C-131.34 68 -130.68 68 -130 68 C-130 67.34 -130 66.68 -130 66 C-126.53846154 63 -126.53846154 63 -124 63 C-124 62.34 -124 61.68 -124 61 C-114.36320038 53.9971538 -103.32262709 48.6110912 -92 45 C-97.41290444 32.51152422 -104.29468925 21.13001558 -117 15 C-120.03739474 15.76242123 -120.03739474 15.76242123 -123 17 C-126.53681364 16.81706136 -129.1753252 16.39063543 -132.375 14.875 C-134.85919455 12.00862168 -134.93659296 9.74101563 -135 6 C-132.82758621 0.4137931 -132.82758621 0.4137931 -130 -1 C-128.29297265 -1.06996014 -126.58331997 -1.08440154 -124.875 -1.0625 C-123.96492188 -1.05347656 -123.05484375 -1.04445313 -122.1171875 -1.03515625 C-121.06917969 -1.01775391 -121.06917969 -1.01775391 -120 -1 C-120 -0.34 -120 0.32 -120 1 C-119.34 1 -118.68 1 -118 1 C-116.5393715 3.64738916 -116 4.89448334 -116 8 C-115.443125 8.103125 -114.88625 8.20625 -114.3125 8.3125 C-111.5230899 9.14178408 -109.3860936 10.34299056 -107 12 C-107 12.66 -107 13.32 -107 14 C-106.41863281 14.26039062 -105.83726562 14.52078125 -105.23828125 14.7890625 C-96.88525557 19.30815144 -92.28503638 27.89317442 -88 36 C-87.60554688 36.69609375 -87.21109375 37.3921875 -86.8046875 38.109375 C-86 40 -86 40 -86 44 C-84.85144531 43.84402344 -83.70289063 43.68804687 -82.51953125 43.52734375 C-73.13652249 42.32418599 -64.43756228 41.81385829 -55 43 C-53.22921547 43.18796037 -51.45838746 43.37551188 -49.6875 43.5625 C-48.470625 43.706875 -47.25375 43.85125 -46 44 C-45.88011719 43.27425781 -45.76023437 42.54851562 -45.63671875 41.80078125 C-43.21476439 31.14715379 -35.33339305 20.87290149 -27 14 C-26.34 14 -25.68 14 -25 14 C-25 13.34 -25 12.68 -25 12 C-18.25 8 -18.25 8 -16 8 C-15.34 5.69 -14.68 3.38 -14 1 C-13.34 1 -12.68 1 -12 1 C-12 0.34 -12 -0.32 -12 -1 C-7.47659051 -2.37073015 -4.35128375 -1.77274523 0 0 Z " fill="#E52428" transform="translate(316,66)"/>
<path d="M0 0 C0.66 0.33 1.32 0.66 2 1 C0.35 2.98 -1.3 4.96 -3 7 C43.53 7.495 43.53 7.495 91 8 C91 33.34092605 91 33.34092605 90.44921875 41.11328125 C90.3908786 42.01347992 90.33253845 42.91367859 90.27243042 43.84115601 C90.08612801 46.66560797 89.88805574 49.48902715 89.6875 52.3125 C89.61997528 53.29135162 89.55245056 54.27020325 89.48287964 55.27871704 C88.51167135 69.30380935 87.39261842 83.27152049 85.39599609 97.19384766 C84.98020555 100.14026966 84.60891888 103.09055116 84.23828125 106.04296875 C82.52559367 118.97154874 79.82187042 131.51306311 76.5625 144.125 C76.28185699 145.21249542 76.28185699 145.21249542 75.99554443 146.32196045 C66.77335474 181.79277354 53.77683743 215.45690008 35 247 C36.98 248.98 36.98 248.98 39 251 C27.64849327 247.81361215 16.66733467 241.7079465 7 235 C7 234.34 7 233.68 7 233 C6.30003906 232.78214844 5.60007813 232.56429687 4.87890625 232.33984375 C1.29484469 230.67182053 -1.25228399 228.27373985 -4.0625 225.5625 C-8.05794102 221.73494792 -8.05794102 221.73494792 -12.37109375 218.27734375 C-12.90863281 217.85582031 -13.44617188 217.43429687 -14 217 C-14 216.34 -14 215.68 -14 215 C-14.66 215 -15.32 215 -16 215 C-21 209.52380952 -21 209.52380952 -21 207 C-21.66 207 -22.32 207 -23 207 C-46.82988982 176.79240108 -58.09619911 138.32068485 -54.6875 99.9921875 C-52.10555218 78.27616208 -45.65699213 57.55041969 -34 39 C-33.35417969 37.95585937 -32.70835938 36.91171875 -32.04296875 35.8359375 C-26.45593449 26.92020703 -26.45593449 26.92020703 -24 24 C-23.34 24 -22.68 24 -22 24 C-21.73832031 23.42121094 -21.47664063 22.84242188 -21.20703125 22.24609375 C-18.10789615 16.47909478 -12.81624857 11.40342726 -8 7 C-7.34 7 -6.68 7 -6 7 C-6 6.34 -6 5.68 -6 5 C-4.04072937 3.2856382 -2.04119788 1.61594832 0 0 Z " fill="#E52428" transform="translate(157,170)"/>
<path d="M0 0 C2.17033516 2.30598111 2.94730404 3.82694215 3.08984375 7 C2.85921375 10.21699279 2.45420191 12.47850892 0.3125 14.9375 C-2.53509559 16.24585473 -4.86789405 16.80424338 -8 17 C-9.34136367 16.34964186 -10.67532254 15.6837045 -12 15 C-18.14297044 15 -22.8115948 19.96194324 -27.046875 23.90625 C-33.0284861 30.11970649 -36.46757717 37.2397086 -40 45 C-38.5459375 45.47566406 -38.5459375 45.47566406 -37.0625 45.9609375 C-26.40493986 49.61223798 -17.27111918 54.62826499 -8 61 C-7.19046875 61.55300781 -6.3809375 62.10601562 -5.546875 62.67578125 C-5.03640625 63.11277344 -4.5259375 63.54976563 -4 64 C-4 64.66 -4 65.32 -4 66 C-3.34 66 -2.68 66 -2 66 C-2 66.66 -2 67.32 -2 68 C-1.34 68 -0.68 68 0 68 C0 68.66 0 69.32 0 70 C0.66 70 1.32 70 2 70 C3.67986821 71.90042645 5.22312684 73.79396015 6.75 75.8125 C7.19666016 76.39837891 7.64332031 76.98425781 8.10351562 77.58789062 C12.52015406 83.50017797 16.37804874 89.73137634 19.0078125 96.65234375 C20.36257142 99.85789536 22.46592753 101.6469327 25 104 C26.33333333 105.33333333 27.66666667 106.66666667 29 108 C28.01 109.98 28.01 109.98 27 112 C-2.7 112 -32.4 112 -63 112 C-61.00300748 193.87669319 -51.12528404 268.43227502 -12.31005859 341.50585938 C-10.4862386 344.97811898 -8.73745336 348.4838236 -7 352 C-7.99 352.33 -8.98 352.66 -10 353 C-10 353.66 -10 354.32 -10 355 C-17.143523 358.03133845 -24.20519171 360.4743561 -31.75 362.25 C-32.43376709 362.41274414 -33.11753418 362.57548828 -33.82202148 362.74316406 C-43.51372466 364.93120107 -53.11067349 365.18641579 -63.0090332 365.18530273 C-65.16573169 365.18747804 -67.32190787 365.20565938 -69.47851562 365.22460938 C-86.37593189 365.29329462 -104.54195937 363.28651915 -120 356 C-120.33 355.34 -120.66 354.68 -121 354 C-123.01669827 352.86649466 -123.01669827 352.86649466 -125 352 C-121.9537098 345.81663612 -118.90371471 339.6421556 -115.625 333.578125 C-109.36353924 321.98571067 -103.89369339 310.23314744 -99 298 C-98.64083496 297.11828125 -98.28166992 296.2365625 -97.91162109 295.328125 C-85.46997996 264.40000407 -78.03276439 231.02326603 -74 198 C-73.8565918 196.88834473 -73.71318359 195.77668945 -73.56542969 194.63134766 C-70.10491955 167.25117552 -69.34140477 139.54412281 -68 112 C-68.97115753 112.00222061 -69.94231506 112.00444122 -70.94290161 112.00672913 C-80.15084473 112.02711042 -89.35878319 112.04204375 -98.56674385 112.05181217 C-103.29922561 112.05700322 -108.03168898 112.0640312 -112.76416016 112.07543945 C-117.34182793 112.08640391 -121.91947815 112.09230519 -126.49715805 112.09487724 C-128.23280996 112.0967073 -129.96846105 112.10028017 -131.70410538 112.10573006 C-141.85813089 112.13630941 -151.87838208 111.90836683 -162 111 C-160.60511787 108.11915968 -159.16175511 105.80009368 -157.0625 103.375 C-156.30646484 102.48941406 -156.30646484 102.48941406 -155.53515625 101.5859375 C-154 100 -154 100 -151 98 C-150.37904544 96.20613128 -149.75864314 94.41206998 -149.140625 92.6171875 C-147.63217232 89.15601183 -145.66685719 86.03825283 -143.625 82.875 C-143.24972168 82.28944336 -142.87444336 81.70388672 -142.48779297 81.10058594 C-139.90569578 77.16141747 -137.1704602 73.48856658 -134 70 C-133.34 70 -132.68 70 -132 70 C-132 69.34 -132 68.68 -132 68 C-131.34 68 -130.68 68 -130 68 C-130 67.34 -130 66.68 -130 66 C-126.53846154 63 -126.53846154 63 -124 63 C-124 62.34 -124 61.68 -124 61 C-114.36320038 53.9971538 -103.32262709 48.6110912 -92 45 C-97.41290444 32.51152422 -104.29468925 21.13001558 -117 15 C-120.03739474 15.76242123 -120.03739474 15.76242123 -123 17 C-126.53681364 16.81706136 -129.1753252 16.39063543 -132.375 14.875 C-134.85919455 12.00862168 -134.93659296 9.74101563 -135 6 C-132.82758621 0.4137931 -132.82758621 0.4137931 -130 -1 C-128.29297265 -1.06996014 -126.58331997 -1.08440154 -124.875 -1.0625 C-123.96492188 -1.05347656 -123.05484375 -1.04445313 -122.1171875 -1.03515625 C-121.06917969 -1.01775391 -121.06917969 -1.01775391 -120 -1 C-120 -0.34 -120 0.32 -120 1 C-119.34 1 -118.68 1 -118 1 C-116.5393715 3.64738916 -116 4.89448334 -116 8 C-115.443125 8.103125 -114.88625 8.20625 -114.3125 8.3125 C-111.5230899 9.14178408 -109.3860936 10.34299056 -107 12 C-107 12.66 -107 13.32 -107 14 C-106.41863281 14.26039062 -105.83726562 14.52078125 -105.23828125 14.7890625 C-96.88525557 19.30815144 -92.28503638 27.89317442 -88 36 C-87.60554688 36.69609375 -87.21109375 37.3921875 -86.8046875 38.109375 C-86 40 -86 40 -86 44 C-84.85144531 43.84402344 -83.70289063 43.68804687 -82.51953125 43.52734375 C-73.13652249 42.32418599 -64.43756228 41.81385829 -55 43 C-53.22921547 43.18796037 -51.45838746 43.37551188 -49.6875 43.5625 C-48.470625 43.706875 -47.25375 43.85125 -46 44 C-45.88011719 43.27425781 -45.76023437 42.54851562 -45.63671875 41.80078125 C-43.21476439 31.14715379 -35.33339305 20.87290149 -27 14 C-26.34 14 -25.68 14 -25 14 C-25 13.34 -25 12.68 -25 12 C-18.25 8 -18.25 8 -16 8 C-15.34 5.69 -14.68 3.38 -14 1 C-13.34 1 -12.68 1 -12 1 C-12 0.34 -12 -0.32 -12 -1 C-7.47659051 -2.37073015 -4.35128375 -1.77274523 0 0 Z " fill="#090707" transform="translate(316,66)"/>
<path d="M0 0 C0.0154612 0.89202873 0.0154612 0.89202873 0.03123474 1.80207825 C0.13927885 7.98250369 0.25387866 14.16278272 0.37231445 20.34301758 C0.41566999 22.65060365 0.4573446 24.95822194 0.49731445 27.26586914 C0.55500183 30.57968867 0.61870092 33.89334597 0.68359375 37.20703125 C0.70030624 38.2414888 0.71701874 39.27594635 0.73423767 40.3417511 C0.7641555 41.78290535 0.7641555 41.78290535 0.79467773 43.25317383 C0.81799416 44.52225334 0.81799416 44.52225334 0.84178162 45.81697083 C0.92274103 48.17959487 0.92274103 48.17959487 2 51 C2.28856409 53.36973436 2.5356706 55.74458109 2.76171875 58.12109375 C2.90865508 59.61132274 3.05639762 61.10147241 3.20483398 62.59155273 C3.28289276 63.38036835 3.36095154 64.16918396 3.44137573 64.98190308 C5.4293399 84.81594355 8.347037 104.40728693 12 124 C12.29511475 125.59303955 12.29511475 125.59303955 12.59619141 127.21826172 C15.55397716 142.707788 20.59158653 157.47179467 25.74633789 172.34130859 C26.60967763 174.86088197 27.45746493 177.38082132 28.28295898 179.91259766 C30.57179451 186.92968769 32.96926798 193.79397249 36.0625 200.5 C36.43463623 201.31823242 36.80677246 202.13646484 37.19018555 202.97949219 C41.66648378 212.66948983 46.68424964 222.08213877 51.68994141 231.50585938 C53.5137614 234.97811898 55.26254664 238.4838236 57 242 C56.01 242.33 55.02 242.66 54 243 C54 243.66 54 244.32 54 245 C46.856477 248.03133845 39.79480829 250.4743561 32.25 252.25 C31.56623291 252.41274414 30.88246582 252.57548828 30.17797852 252.74316406 C20.48627534 254.93120107 10.88932651 255.18641579 0.9909668 255.18530273 C-1.16573169 255.18747804 -3.32190787 255.20565938 -5.47851562 255.22460938 C-22.37593189 255.29329462 -40.54195937 253.28651915 -56 246 C-56.495 245.01 -56.495 245.01 -57 244 C-59.01669827 242.86649466 -59.01669827 242.86649466 -61 242 C-57.9537098 235.81663612 -54.90371471 229.6421556 -51.625 223.578125 C-45.36353924 211.98571067 -39.89369339 200.23314744 -35 188 C-34.64083496 187.11828125 -34.28166992 186.2365625 -33.91162109 185.328125 C-21.46997996 154.40000407 -14.03276439 121.02326603 -10 88 C-9.8565918 86.88834473 -9.71318359 85.77668945 -9.56542969 84.63134766 C-6.10584721 57.25851531 -5.38254906 29.51930978 -4 2 C-30.4 2 -56.8 2 -84 2 C-84 1.67 -84 1.34 -84 1 C-73.78603743 0.86924244 -63.57207055 0.73882732 -53.35809803 0.60884857 C-48.61527608 0.54848265 -43.87245568 0.48799908 -39.12963867 0.42724609 C-34.55201754 0.36861352 -29.97439256 0.31029069 -25.39676476 0.25218201 C-23.65088447 0.22996537 -21.9050056 0.2076374 -20.15912819 0.18519592 C-17.71261581 0.15376757 -15.26609869 0.12273615 -12.81958008 0.09179688 C-11.73848213 0.07777077 -11.73848213 0.07777077 -10.63554382 0.0634613 C-7.09011574 0.01904177 -3.54571141 -0.01011439 0 0 Z " fill="#060202" transform="translate(252,176)"/>
<path d="M0 0 C5.25542336 3.183285 10.28860944 7.23793228 12.61328125 13.0546875 C13.51795412 20.25397898 13.48221844 26.52758844 9.0390625 32.47265625 C4.90458722 37.06022471 0.74500585 39.63279714 -5.40234375 40.4609375 C-12.22113917 40.65858374 -17.050436 40.24689103 -22.5078125 35.9453125 C-27.31237183 31.11078711 -29.64227612 26.33161263 -30.01171875 19.4921875 C-29.69166666 13.13559734 -27.29485212 8.97025855 -22.859375 4.5234375 C-16.30521181 -1.21353995 -8.39850714 -3.32641363 0 0 Z " fill="#F6F6F6" transform="translate(290.38671875,129.9453125)"/>
<path d="M0 0 C5.32125582 3.08243478 9.03837421 7.26034656 10.921875 13.11328125 C12.10371054 20.51111719 10.80050627 25.82196871 6.64453125 32.01171875 C3.01345956 36.44146154 -1.12890865 38.79058306 -6.8984375 39.421875 C-13.852342 39.69312659 -18.64553668 39.3315372 -24.19921875 34.93359375 C-29.19894712 30.08978206 -31.35587284 26.1786943 -31.640625 19.11328125 C-31.36853645 13.71232362 -30.62040162 9.32090613 -27.078125 5.11328125 C-18.8519352 -1.6725829 -10.14233947 -4.28006725 0 0 Z " fill="#F7F7F6" transform="translate(228.078125,130.88671875)"/>
<path d="M0 0 C4.9492112 2.02467731 8.61845033 6.23690065 11 11 C11.65258844 16.43823699 10.65175079 19.79595097 7.61328125 24.1953125 C4.39841985 27.79159813 0.76759359 29.6453181 -4.01171875 30.2578125 C-9.41930683 30.06658149 -12.56321271 27.34890416 -16.43359375 23.7890625 C-19.43012604 20.36658921 -19.34064686 16.6139959 -19.27734375 12.28125 C-18.6848301 7.40761657 -15.84661748 4.74817359 -12.3125 1.625 C-8.03270556 -0.4745218 -4.68226716 -0.70364312 0 0 Z " fill="#0B0101" transform="translate(163,327)"/>
<path d="M0 0 C3.8998683 1.93319652 6.4714772 4.44573923 8.4140625 8.34765625 C9.96713934 13.55863775 8.69796327 18.05473542 6.1953125 22.71484375 C3.45313277 26.00545943 1.55593663 28.03464214 -2.7265625 28.87890625 C-8.48253405 29.04293653 -12.19066747 28.86695763 -16.6796875 25.02734375 C-20.11020424 21.63944213 -21.14761871 18.81380846 -21.3046875 14.02734375 C-21.23692119 9.38911604 -20.11867109 6.87770676 -16.9921875 3.33984375 C-11.81446797 -1.23581537 -6.51973567 -2.16046143 0 0 Z " fill="#090001" transform="translate(351.9921875,327.66015625)"/>
<path d="M0 0 C4.01114775 3.34262313 6.77069375 6.22738478 8.25 11.3125 C8.25 17.01279612 6.44583418 20.53333238 2.6875 24.75 C-1.47083978 28.3752193 -4.60480976 28.21258053 -9.984375 28.15625 C-14.87826017 27.65856676 -17.4275622 25.32968158 -20.625 21.8125 C-22.41917116 17.12771975 -22.73285927 12.80304262 -21.75 7.875 C-16.85408293 -0.3370849 -9.13606901 -3.73748278 0 0 Z " fill="#0A0101" transform="translate(302.75,269.125)"/>
<path d="M0 0 C3.86544091 2.15413891 5.9521908 4.26681718 7.8125 8.375 C8.47047164 13.14951216 8.54091831 18.28237254 5.8125 22.375 C1.84287411 25.95758736 -1.95061304 27.71071324 -7.3125 27.9375 C-11.94203433 27.67478103 -14.68863548 26.54063932 -18.1875 23.375 C-21.44983998 19.59755371 -22.92001172 16.55434843 -22.63671875 11.46484375 C-21.5042739 6.19651334 -18.67805289 2.41190636 -14.3125 -0.625 C-9.04979976 -2.30906408 -5.03322099 -2.23179929 0 0 Z " fill="#0B0101" transform="translate(161.1875,216.625)"/>
<path d="M0 0 C4.65702344 2.45552145 8.31667974 4.95003921 10 10 C10.52438572 14.99455908 10.55003096 18.87956656 8.3125 23.4375 C5.17414476 26.91513689 3.20693511 28.726664 -1.5546875 29.31640625 C-6.18196887 29.51077715 -9.28329232 29.34555549 -13.5 27.3125 C-16.92625867 24.14321073 -18.76376766 22.17530616 -19.28125 17.41015625 C-19.58617449 7.94479194 -19.58617449 7.94479194 -16 4 C-11.07195189 -0.44726293 -6.37372012 -1.04674103 0 0 Z " fill="#090101" transform="translate(209,268)"/>
<path d="M0 0 C3.74479014 2.18728249 6.25442045 3.82670215 7.78515625 8.01171875 C8.33448212 12.79870136 8.36901533 17.39752013 6.72265625 21.94921875 C2.82610441 26.09716103 -1.01015405 28.22340903 -6.65234375 28.57421875 C-11.73455354 28.33055116 -15.43519396 26.34779106 -19.21484375 23.01171875 C-21.94001445 18.9239627 -21.88058536 13.78146244 -21.21484375 9.01171875 C-17.33489533 0.7862281 -8.78103251 -3.91816795 0 0 Z " fill="#0A0101" transform="translate(352.21484375,215.98828125)"/>
<path d="M0 0 C0.91007813 0.00902344 1.82015625 0.01804687 2.7578125 0.02734375 C3.45648438 0.03894531 4.15515625 0.05054687 4.875 0.0625 C4.875 0.7225 4.875 1.3825 4.875 2.0625 C5.535 2.0625 6.195 2.0625 6.875 2.0625 C8.3356285 4.70988916 8.875 5.95698334 8.875 9.0625 C9.7103125 9.2171875 9.7103125 9.2171875 10.5625 9.375 C13.3519101 10.20428408 15.4889064 11.40549056 17.875 13.0625 C17.875 13.7225 17.875 14.3825 17.875 15.0625 C18.45636719 15.32289062 19.03773438 15.58328125 19.63671875 15.8515625 C27.98974443 20.37065144 32.58996362 28.95567442 36.875 37.0625 C37.29007813 37.77921875 37.70515625 38.4959375 38.1328125 39.234375 C38.875 41.0625 38.875 41.0625 37.875 44.0625 C37.215 43.0725 36.555 42.0825 35.875 41.0625 C35.215 42.7125 34.555 44.3625 33.875 46.0625 C31.58345416 43.18303569 29.93798111 40.29463186 28.3125 37 C23.81099485 28.6464606 17.07506409 19.42406188 7.875 16.0625 C4.83760526 16.82492123 4.83760526 16.82492123 1.875 18.0625 C-1.66181364 17.87956136 -4.3003252 17.45313543 -7.5 15.9375 C-9.98419455 13.07112168 -10.06159296 10.80351563 -10.125 7.0625 C-7.77369689 1.016292 -6.29655407 -0.08072505 0 0 Z " fill="#201B1A" transform="translate(191.125,64.9375)"/>
<path d="M0 0 C2.17033516 2.30598111 2.94730404 3.82694215 3.08984375 7 C2.85921375 10.21699279 2.45420191 12.47850892 0.3125 14.9375 C-2.53509559 16.24585473 -4.86789405 16.80424338 -8 17 C-9.34136367 16.34964186 -10.67532254 15.6837045 -12 15 C-17.31215343 15 -21.21143382 18.63392475 -25 22 C-27.78044086 24.90833167 -30.42045383 27.91277719 -33 31 C-34 29 -34 29 -34 26 C-35.98 26.99 -35.98 26.99 -38 28 C-36.6145759 23.76090342 -34.67287988 21.29341975 -31.5 18.1875 C-30.7059375 17.39730469 -29.911875 16.60710937 -29.09375 15.79296875 C-27 14 -27 14 -25 14 C-25 13.34 -25 12.68 -25 12 C-18.25 8 -18.25 8 -16 8 C-15.34 5.69 -14.68 3.38 -14 1 C-13.34 1 -12.68 1 -12 1 C-12 0.34 -12 -0.32 -12 -1 C-7.47659051 -2.37073015 -4.35128375 -1.77274523 0 0 Z " fill="#332D2C" transform="translate(316,66)"/>
<path d="M0 0 C2.8100346 1.79363911 4.50940468 3.01880935 6 6 C6.39447548 10.18144011 6.45035186 12.30946048 4.125 15.875 C1.23714203 18.76285797 0.41692062 18.95830794 -3.75 19.375 C-6.91193254 19.3173005 -8.90884475 18.83848634 -11.5 17 C-14.30551395 13.63338326 -14.78932384 12.17318276 -14.46875 7.93359375 C-13.73623313 4.91196165 -12.19716904 3.13254642 -10 1 C-6.79826746 -0.60086627 -3.47422941 -0.49917089 0 0 Z " fill="#070707" transform="translate(222,140)"/>
<path d="M0 0 C2.8100346 1.79363911 4.50940468 3.01880935 6 6 C6.39447548 10.18144011 6.45035186 12.30946048 4.125 15.875 C1.19961143 18.80038857 0.42659437 18.96503325 -3.8125 19.3125 C-6.83292415 19.24659984 -8.13081976 18.93598182 -10.9375 17.5625 C-13.85238176 13.94098024 -14.44335215 10.60593622 -14 6 C-10.48028041 0.17425724 -6.63382773 -0.95313617 0 0 Z " fill="#060606" transform="translate(286,140)"/>
<path d="M0 0 C2.475 0.99 2.475 0.99 5 2 C5 2.66 5 3.32 5 4 C5.58136719 4.26039062 6.16273438 4.52078125 6.76171875 4.7890625 C15.11474443 9.30815144 19.71496362 17.89317442 24 26 C24.41507813 26.71671875 24.83015625 27.4334375 25.2578125 28.171875 C26 30 26 30 25 33 C24.34 32.01 23.68 31.02 23 30 C22.01 32.475 22.01 32.475 21 35 C18.70845416 32.12053569 17.06298111 29.23213186 15.4375 25.9375 C10.35125805 16.498852 3.10857501 7.49494616 -7.4375 4.25 C-7.953125 4.1675 -8.46875 4.085 -9 4 C-5.5647952 1.70986347 -4.014669 1.82157027 0 2 C0 1.34 0 0.68 0 0 Z " fill="#594F4E" transform="translate(204,76)"/>
<path d="M0 0 C0.66 0.33 1.32 0.66 2 1 C0.35 2.98 -1.3 4.96 -3 7 C43.53 7.495 43.53 7.495 91 8 C91 21.56987771 90.89725992 34.87695901 90 48.375 C89.90301781 49.91272094 89.80666333 51.45048159 89.7109375 52.98828125 C89.48110847 56.65933552 89.24308551 60.32979664 89 64 C88.67 64 88.34 64 88 64 C87.96928215 60.27085312 87.95266832 56.54173987 87.9375 52.8125 C87.92912109 51.81541016 87.92074219 50.81832031 87.91210938 49.79101562 C87.8714391 36.16647257 88.52941048 22.64709622 89 9 C57.32 9 25.64 9 -7 9 C-5.71284823 3.85139294 -4.09341999 3.13538553 0 0 Z " fill="#B82C30" transform="translate(157,170)"/>
<path d="M0 0 C2.49361571 1.20381448 4.68143083 2.45428722 7 4 C7 4.66 7 5.32 7 6 C7.66 6 8.32 6 9 6 C9.495 7.98 9.495 7.98 10 10 C-21.35 10 -52.7 10 -85 10 C-85.04367367 36.54462447 -85.04367367 36.54462447 -84.5 63.0625 C-84.45136289 64.64647032 -84.40318834 66.2304549 -84.35546875 67.81445312 C-84.24219983 71.54314547 -84.1230684 75.27161649 -84 79 C-84.33 79 -84.66 79 -85 79 C-87.13920838 55.56258265 -87 32.65697585 -87 9 C-57.3 8.67 -27.6 8.34 3 8 C3 3.73173127 2.62386487 3.06117568 0 0 Z " fill="#BD2E32" transform="translate(340,169)"/>
<path d="M0 0 C0.33 0 0.66 0 1 0 C1.87890625 6.15234375 1.87890625 6.15234375 2 8 C1.67 8.33 1.34 8.66 1 9 C-1.53500718 17.86842696 -1.27612108 27.02634973 -1.20581055 36.15576172 C-1.18727959 38.65472369 -1.18530326 41.15331948 -1.18554688 43.65234375 C-1.18064039 45.23958656 -1.17481591 46.82682687 -1.16796875 48.4140625 C-1.16629951 49.53574326 -1.16629951 49.53574326 -1.16459656 50.68008423 C-1.44163725 54.13012781 -1.44163725 54.13012781 0 57 C0.69854029 60.59887282 1.13281204 64.24283518 1.625 67.875 C1.77195312 68.89464844 1.91890625 69.91429687 2.0703125 70.96484375 C2.204375 71.94324219 2.3384375 72.92164063 2.4765625 73.9296875 C2.60111816 74.82929199 2.72567383 75.72889648 2.85400391 76.65576172 C3 79 3 79 2 82 C-7.45592942 55.9016348 -7.41685873 26.55235425 0 0 Z " fill="#CE4041" transform="translate(107,247)"/>
<path d="M0 0 C2.35091681 3.52637521 2.67887739 6.52360942 3.125 10.625 C3.2084668 11.37845703 3.29193359 12.13191406 3.37792969 12.90820312 C5.75966238 36.29779027 2.86823931 60.15960211 -6 82 C-7.07957773 78.7612668 -6.92256147 77.62529401 -6.2578125 74.3671875 C-6.07863281 73.47902344 -5.89945312 72.59085937 -5.71484375 71.67578125 C-5.52019531 70.75152344 -5.32554687 69.82726562 -5.125 68.875 C-4.93808594 67.94300781 -4.75117188 67.01101563 -4.55859375 66.05078125 C-3.14028159 59.14028159 -3.14028159 59.14028159 -2 58 C-1.62559586 55.9027518 -1.30029947 53.79663459 -1 51.6875 C-0.08910219 45.33256453 -0.08910219 45.33256453 0.5546875 42.9296875 C3.59384622 29.75999972 0.54496624 13.39515412 0 0 Z " fill="#E67978" transform="translate(394,256)"/>
<path d="M0 0 C1.65 0 3.3 0 5 0 C6.80384963 4.63847047 7.27018769 8.53382934 7.25 13.5 C7.25773437 15.40265625 7.25773437 15.40265625 7.265625 17.34375 C7.00698139 20.90390317 6.28821239 23.68745385 5 27 C-0.20173095 27.86809439 -5.16978816 28.12515348 -10.4375 28.0625 C-11.16904297 28.05798828 -11.90058594 28.05347656 -12.65429688 28.04882812 C-14.43623419 28.03718148 -16.21812863 28.01925191 -18 28 C-18.33 27.01 -18.66 26.02 -19 25 C-19.99 24.67 -20.98 24.34 -22 24 C-24.69009231 18.22128319 -26.26622066 13.12613286 -24.3203125 6.78515625 C-23.60092613 4.83596177 -22.80626963 2.91489038 -22 1 C-21.34 1.33 -20.68 1.66 -20 2 C-20.33 2.804375 -20.66 3.60875 -21 4.4375 C-22.47187356 9.68104957 -22.50398634 14.48006831 -21.4375 19.8125 C-19.28712788 23.0848054 -16.61211113 24.71828315 -13 26 C-8.27137912 26.82563222 -4.33670222 26.48929097 -0.0625 24.25 C2.94669294 22.03916437 3.75096821 21.33864422 5 18 C5.31523089 15.31704637 5.31523089 15.31704637 5.25 12.5 C5.25515625 11.5615625 5.2603125 10.623125 5.265625 9.65625 C4.83441661 5.34416607 3.15853155 2.87139232 0 0 Z " fill="#C72A30" transform="translate(354,217)"/>
<path d="M0 0 C2 0 2 0 3.3671875 1.25 C6.93317993 5.38876842 10.3356244 9.71991189 12 15 C11.67 15.99 11.34 16.98 11 18 C10.34 17.01 9.68 16.02 9 15 C8.01 17.475 8.01 17.475 7 20 C2.32366352 14.38839623 -0.55337379 8.29489476 -1 1 C-0.67 0.67 -0.34 0.34 0 0 Z " fill="#544B4A" transform="translate(218,91)"/>
<path d="M0 0 C0.66 0 1.32 0 2 0 C2.39832031 1.10859375 2.79664062 2.2171875 3.20703125 3.359375 C3.74183406 4.82304586 4.27700997 6.28658043 4.8125 7.75 C5.07353516 8.47960937 5.33457031 9.20921875 5.60351562 9.9609375 C7.01541206 13.79571795 8.44259518 16.77279867 11 20 C11.1875 22.75 11.1875 22.75 11 25 C11.66 25 12.32 25 13 25 C13 25.66 13 26.32 13 27 C13.66 27 14.32 27 15 27 C15.52992692 28.45505358 16.0486789 29.91418127 16.5625 31.375 C16.85253906 32.18710937 17.14257812 32.99921875 17.44140625 33.8359375 C18 36 18 36 17 38 C11.97336502 30.61084659 7.27089505 23.36253464 4 15 C3.64550781 14.09378906 3.29101562 13.18757813 2.92578125 12.25390625 C0 4.52368421 0 4.52368421 0 0 Z " fill="#E2676A" transform="translate(110,329)"/>
<path d="M0 0 C0.66 0.33 1.32 0.66 2 1 C3.88472859 1.15344209 5.77427874 1.24959571 7.6640625 1.31640625 C8.78554687 1.35830078 9.90703125 1.40019531 11.0625 1.44335938 C12.238125 1.48267578 13.41375 1.52199219 14.625 1.5625 C15.80835938 1.60568359 16.99171875 1.64886719 18.2109375 1.69335938 C21.14050328 1.79967426 24.07015588 1.90170642 27 2 C27 2.33 27 2.66 27 3 C24.45873828 3.19617816 21.91739541 3.38217248 19.375 3.5625 C18.66214844 3.61857422 17.94929688 3.67464844 17.21484375 3.73242188 C12.96331896 4.02495798 9.20543653 3.89547939 5 3 C5 3.99 5 4.98 5 6 C3.68 6 2.36 6 1 6 C0.67 6.99 0.34 7.98 0 9 C-0.886875 9.103125 -1.77375 9.20625 -2.6875 9.3125 C-6.0573702 10.01190702 -8.17271538 11.08742511 -11 13 C-9.46356148 9.31930113 -7.21849055 7.01224796 -4.375 4.25 C-3.55773437 3.45078125 -2.74046875 2.6515625 -1.8984375 1.828125 C-0.95871094 0.92320312 -0.95871094 0.92320312 0 0 Z " fill="#DF282A" transform="translate(149,177)"/>
<path d="M0 0 C0.33 0 0.66 0 1 0 C1 15.18 1 30.36 1 46 C0.34 46 -0.32 46 -1 46 C-1 49.3 -1 52.6 -1 56 C-1.33 56 -1.66 56 -2 56 C-2.15745414 43.63110246 -1.66471081 31.34845311 -1 19 C-0.90326754 17.14585303 -0.80691123 15.2916864 -0.7109375 13.4375 C-0.47827834 8.95809562 -0.2405855 4.47898536 0 0 Z " fill="#2D0202" transform="translate(248,178)"/>
<path d="M0 0 C-2.20716463 1.27289905 -4.41567485 2.5433605 -6.625 3.8125 C-7.24246094 4.16892578 -7.85992187 4.52535156 -8.49609375 4.89257812 C-16.54489169 9.51004642 -16.54489169 9.51004642 -20 11 C-20.99 10.67 -21.98 10.34 -23 10 C-22.34 9.34 -21.68 8.68 -21 8 C-21.32326553 4.40320934 -21.32326553 4.40320934 -22 1 C-19.69 1.66 -17.38 2.32 -15 3 C-15 3.66 -15 4.32 -15 5 C-12.37098712 3.47793991 -10.15634036 2.15634036 -8 0 C-2.51428571 -1.25714286 -2.51428571 -1.25714286 0 0 Z " fill="#D94248" transform="translate(329,409)"/>
<path d="M0 0 C0.33 0 0.66 0 1 0 C1.87890625 6.15234375 1.87890625 6.15234375 2 8 C1.67 8.33 1.34 8.66 1 9 C0.45900338 11.60207614 -0.03765672 14.19636945 -0.5 16.8125 C-1.91937204 24.71741855 -1.91937204 24.71741855 -2.53881836 26.88842773 C-3.11280907 29.5165091 -3.11196358 31.95084669 -3.09765625 34.640625 C-3.09443359 35.71054687 -3.09121094 36.78046875 -3.08789062 37.8828125 C-3.07951172 38.99398437 -3.07113281 40.10515625 -3.0625 41.25 C-3.05798828 42.37664062 -3.05347656 43.50328125 -3.04882812 44.6640625 C-3.03705397 47.44276217 -3.0206084 50.22135409 -3 53 C-3.33 53 -3.66 53 -4 53 C-7.50347715 35.7068368 -4.67845536 16.74887019 0 0 Z " fill="#EB8F8F" transform="translate(107,247)"/>
<path d="M0 0 C2.35114833 3.52672249 2.67790473 6.5234868 3.125 10.625 C3.20919189 11.37120605 3.29338379 12.11741211 3.38012695 12.88623047 C3.93964254 18.30225062 4.18145276 23.68127026 4.1875 29.125 C4.1887085 30.15294678 4.1887085 30.15294678 4.18994141 31.20166016 C4.14188439 35.56203378 3.69676027 39.70795675 3 44 C2.67 44 2.34 44 2 44 C1.34 29.48 0.68 14.96 0 0 Z " fill="#EA908F" transform="translate(394,256)"/>
<path d="M0 0 C1.24546405 2.49092811 0.7767578 3.41080733 0 6 C-0.66 6 -1.32 6 -2 6 C-2.09410156 6.73992187 -2.18820313 7.47984375 -2.28515625 8.2421875 C-3.10494267 11.4048608 -4.21403635 12.76748137 -6.4375 15.125 C-8.54234261 17.38364113 -10.27704498 19.41556748 -12 22 C-12.66 21.67 -13.32 21.34 -14 21 C-12.68246445 16.37490124 -10.84885893 12.9898123 -8 9.125 C-7.29875 8.15820312 -6.5975 7.19140625 -5.875 6.1953125 C-5.25625 5.47085938 -4.6375 4.74640625 -4 4 C-3.34 4 -2.68 4 -2 4 C-1.34 2.68 -0.68 1.36 0 0 Z " fill="#E14B4E" transform="translate(137,190)"/>
<path d="M0 0 C2.49361571 1.20381448 4.68143083 2.45428722 7 4 C7 4.66 7 5.32 7 6 C7.66 6 8.32 6 9 6 C9.495 7.98 9.495 7.98 10 10 C-4.85 10 -19.7 10 -35 10 C-35 9.67 -35 9.34 -35 9 C-22.46 8.67 -9.92 8.34 3 8 C3 3.73173127 2.62386487 3.06117568 0 0 Z " fill="#B63033" transform="translate(340,169)"/>
<path d="M0 0 C-0.95117134 1.1725131 -1.91117009 2.33787015 -2.875 3.5 C-3.67550781 4.47453125 -3.67550781 4.47453125 -4.4921875 5.46875 C-4.98976563 5.9740625 -5.48734375 6.479375 -6 7 C-6.66 7 -7.32 7 -8 7 C-8.226875 7.5775 -8.45375 8.155 -8.6875 8.75 C-10.34848222 11.59739809 -12.31524561 13.12067193 -15 15 C-15.66 15 -16.32 15 -17 15 C-17 12.36 -17 9.72 -17 7 C-16.67 7.66 -16.34 8.32 -16 9 C-14.35 8.67 -12.7 8.34 -11 8 C-11 7.34 -11 6.68 -11 6 C-10.01 6 -9.02 6 -8 6 C-7.87625 5.195625 -7.7525 4.39125 -7.625 3.5625 C-7.41875 2.716875 -7.2125 1.87125 -7 1 C-4.53721199 -0.231394 -2.7204945 -0.07159196 0 0 Z " fill="#E25B5D" transform="translate(355,387)"/>
<path d="M0 0 C2.9531027 3.4008034 4.2342895 7.08485207 5.5625 11.3125 C5.77068359 11.95123047 5.97886719 12.58996094 6.19335938 13.24804688 C10.29558477 25.94051227 10.29558477 25.94051227 10 32 C9.67 31.34 9.34 30.68 9 30 C8.34 30 7.68 30 7 30 C6.80664062 29.10796875 6.61328125 28.2159375 6.4140625 27.296875 C6.15367187 26.12640625 5.89328125 24.9559375 5.625 23.75 C5.24214844 22.00976562 5.24214844 22.00976562 4.8515625 20.234375 C4.13462492 17.51132769 3.26621201 15.47414649 2 13 C1.71349142 10.99443996 1.42965684 8.98756979 1.21875 6.97265625 C0.95721292 4.61415223 0.50686623 2.31710275 0 0 Z " fill="#E98283" transform="translate(384,224)"/>
<path d="M0 0 C0.33 0 0.66 0 1 0 C1 9.9 1 19.8 1 30 C0.01 30.33 -0.98 30.66 -2 31 C-1.95875 32.175625 -1.9175 33.35125 -1.875 34.5625 C-1.86016365 38.72409674 -2.68829222 42.06487667 -4 46 C-4.94820654 42.92803773 -4.99576101 40.6675567 -4.51171875 37.5 C-4.38321533 36.62166504 -4.25471191 35.74333008 -4.12231445 34.83837891 C-3.97882568 33.90171387 -3.83533691 32.96504883 -3.6875 32 C-2.13845834 21.35690046 -0.98720365 10.70825605 0 0 Z " fill="#390304" transform="translate(245,234)"/>
<path d="M0 0 C0.33 0 0.66 0 1 0 C1.08636719 0.66386719 1.17273438 1.32773437 1.26171875 2.01171875 C2.19214563 7.85889686 3.1147738 11.2139497 8 15 C10.55919182 16.27959591 12.45484028 16.16816536 15.3125 16.1875 C16.72982422 16.20876953 16.72982422 16.20876953 18.17578125 16.23046875 C21.14406882 15.98824335 23.30867165 15.24026607 26 14 C23.65689955 17.15809191 21.67405193 18.34578926 17.875 18.9375 C12.70110123 19.3070642 7.65202488 18.32601244 3 16 C2.67 15.01 2.34 14.02 2 13 C0.50014391 11.33289654 0.50014391 11.33289654 -1 10 C-0.67 9.67 -0.34 9.34 0 9 C0.07179964 7.48071962 0.08392007 5.95832518 0.0625 4.4375 C0.05347656 3.61121094 0.04445312 2.78492188 0.03515625 1.93359375 C0.02355469 1.29550781 0.01195312 0.65742188 0 0 Z " fill="#B9292D" transform="translate(189,280)"/>
<path d="M0 0 C2.97 0 5.94 0 9 0 C9.061875 0.78375 9.12375 1.5675 9.1875 2.375 C9.455625 3.24125 9.72375 4.1075 10 5 C11.64551962 5.71727778 13.31422289 6.38325228 15 7 C16.3125 9.125 16.3125 9.125 17 11 C13.34426939 9.62992438 10.04532353 7.98982135 6.6875 6 C5.80449219 5.484375 4.92148438 4.96875 4.01171875 4.4375 C3.34785156 3.963125 2.68398437 3.48875 2 3 C2 2.34 2 1.68 2 1 C1.34 0.67 0.68 0.34 0 0 Z " fill="#E04649" transform="translate(162,402)"/>
<path d="M0 0 C1.14507772 5.19689119 1.14507772 5.19689119 1 8 C-1.4375 11 -1.4375 11 -4 13 C-4 11.35 -4 9.7 -4 8 C-5.98 8.99 -5.98 8.99 -8 10 C-6.95558375 6.6768574 -4.14711476 0 0 0 Z " fill="#4B4342" transform="translate(286,84)"/>
<path d="M0 0 C0.66 0 1.32 0 2 0 C1.84015625 0.56847656 1.6803125 1.13695312 1.515625 1.72265625 C0.43757727 6.48403372 0.23833925 11.23615405 2.1875 15.75 C4.29255034 18.36316593 6.56331125 20.69502416 9 23 C6.3125 23.0625 6.3125 23.0625 3 22 C-0.26374922 18.13747508 -2.29221272 13.83505496 -2.4375 8.75 C-2.04873319 5.4177131 -1.49094588 2.98189176 0 0 Z " fill="#BD2B31" transform="translate(331,333)"/>
<path d="M0 0 C0.66 0 1.32 0 2 0 C2.10957031 0.75023437 2.21914063 1.50046875 2.33203125 2.2734375 C3.41032942 13.35082539 3.41032942 13.35082539 8 23 C8.04092937 25.33297433 8.04241723 27.66705225 8 30 C4.60468475 26.60468475 4.09518653 21.80380621 2.875 17.25 C2.59785156 16.26 2.32070313 15.27 2.03515625 14.25 C0.72161767 9.40996622 -0.39623831 5.06495927 0 0 Z " fill="#B6292B" transform="translate(265,304)"/>
<path d="M0 0 C1.32 0 2.64 0 4 0 C3.40984815 5.50808397 2.43336231 10.64878069 1 16 C0.67 16 0.34 16 0 16 C-0.84634488 10.92193071 -1.17765417 6.15197086 -1 1 C-0.67 0.67 -0.34 0.34 0 0 Z " fill="#D62A2E" transform="translate(231,304)"/>
<path d="M0 0 C2 0 2 0 4.1875 1.6875 C6 4 6 4 5.75 6.75 C5.5025 7.4925 5.255 8.235 5 9 C3.68 9.33 2.36 9.66 1 10 C0.63883954 8.5225254 0.28624952 7.04295325 -0.0625 5.5625 C-0.25972656 4.73878906 -0.45695313 3.91507812 -0.66015625 3.06640625 C-0.82837891 2.04353516 -0.82837891 2.04353516 -1 1 C-0.67 0.67 -0.34 0.34 0 0 Z " fill="#2A2322" transform="translate(218,91)"/>
<path d="M0 0 C0.33 1.32 0.66 2.64 1 4 C0.01 4.495 0.01 4.495 -1 5 C-1 6.65 -1 8.3 -1 10 C-2.65 10.33 -4.3 10.66 -6 11 C-5.67 10.01 -5.34 9.02 -5 8 C-6.051875 8.2784375 -6.051875 8.2784375 -7.125 8.5625 C-10.33888698 9.05156976 -12.83560336 8.66231558 -16 8 C-16 7.67 -16 7.34 -16 7 C-15.33613281 6.97421875 -14.67226563 6.9484375 -13.98828125 6.921875 C-8.48233744 6.56820854 -4.95813608 6.2134997 -1 2 C-0.67 1.34 -0.34 0.68 0 0 Z M-1 8 C1 9 1 9 1 9 Z " fill="#C52527" transform="translate(358,349)"/>
<path d="M0 0 C0.53625 0.7425 1.0725 1.485 1.625 2.25 C4.77931352 5.90236302 7.4677911 8.6707722 12.43359375 9.31640625 C17.01518281 9.41852191 20.87502334 9.19998755 25 7 C25 7.66 25 8.32 25 9 C19.41113884 11.97279849 15.15929255 12.84880921 9 11 C5.65561776 9.39124557 2.54863295 7.72336192 0 5 C-0.24609375 2.296875 -0.24609375 2.296875 0 0 Z " fill="#BE2B31" transform="translate(139,234)"/>
<path d="M0 0 C0.66 0 1.32 0 2 0 C0.44347945 5.3537465 -1.9817509 10.00150947 -4.625 14.875 C-5.04523438 15.65875 -5.46546875 16.4425 -5.8984375 17.25 C-6.9281022 19.16892057 -7.96347567 21.08477603 -9 23 C-9.33 23 -9.66 23 -10 23 C-10 21.35 -10 19.7 -10 18 C-9.34 17.67 -8.68 17.34 -8 17 C-7.27306096 15.02111039 -6.60183749 13.02045442 -6 11 C-5.34 11 -4.68 11 -4 11 C-3.87882813 10.37351562 -3.75765625 9.74703125 -3.6328125 9.1015625 C-3.38144531 7.87566406 -3.38144531 7.87566406 -3.125 6.625 C-2.96257812 5.81289063 -2.80015625 5.00078125 -2.6328125 4.1640625 C-2 2 -2 2 0 0 Z " fill="#C02E30" transform="translate(207,383)"/>
<path d="M0 0 C6.39023833 -0.51121907 9.7523975 -0.02722982 15 4 C17.14733927 4.70514846 17.14733927 4.70514846 19 5 C19.66 5.33 20.32 5.66 21 6 C20.34 7.65 19.68 9.3 19 11 C18.278125 10.236875 17.55625 9.47375 16.8125 8.6875 C11.41315146 3.52812251 7.27157612 2.4594242 0 2 C0 1.34 0 0.68 0 0 Z " fill="#C22A31" transform="translate(154,325)"/>
<path d="M0 0 C0.66 0.33 1.32 0.66 2 1 C-2.51327434 5.7640118 -2.51327434 5.7640118 -5.0625 7 C-7.2699093 7.9694436 -7.2699093 7.9694436 -9.0625 10.625 C-9.701875 11.40875 -10.34125 12.1925 -11 13 C-11.99 13 -12.98 13 -14 13 C-14 12.34 -14 11.68 -14 11 C-13.34 11 -12.68 11 -12 11 C-12 10.34 -12 9.68 -12 9 C-8.53846154 6 -8.53846154 6 -6 6 C-6 5.34 -6 4.68 -6 4 C-4.03852126 2.61061923 -2.03833424 1.2739589 0 0 Z " fill="#776C6B" transform="translate(198,123)"/>
<path d="M0 0 C0.33 0 0.66 0 1 0 C3.90409903 8.37461115 5.68035855 16.12994977 6 25 C3.1041665 22.1041665 2.75435178 18.62566156 1.875 14.75 C1.69324219 13.99847656 1.51148437 13.24695313 1.32421875 12.47265625 C0.33966797 8.230945 -0.2095133 4.38581167 0 0 Z " fill="#E98282" transform="translate(104,304)"/>
<path d="M0 0 C4.18423892 3.50897269 8.19588166 7.08060535 12 11 C11.67 11.66 11.34 12.32 11 13 C8 11 5 9 2 7 C2.33 6.34 2.66 5.68 3 5 C1.35 4.67 -0.3 4.34 -2 4 C-1.34 2.68 -0.68 1.36 0 0 Z " fill="#E66F6E" transform="translate(350,177)"/>
<path d="M0 0 C0 0.33 0 0.66 0 1 C-0.58491211 1.02505615 -1.16982422 1.0501123 -1.77246094 1.07592773 C-4.43184471 1.19222962 -7.09090403 1.31480067 -9.75 1.4375 C-11.13058594 1.49647461 -11.13058594 1.49647461 -12.5390625 1.55664062 C-13.87324219 1.61948242 -13.87324219 1.61948242 -15.234375 1.68359375 C-16.05131836 1.72025146 -16.86826172 1.75690918 -17.70996094 1.79467773 C-19.98396946 1.93356196 -19.98396946 1.93356196 -22.06347656 2.54711914 C-25.1255633 3.26322742 -27.94020203 2.52958042 -31 2 C-31 1.67 -31 1.34 -31 1 C-20.43755622 -0.43440595 -10.63038081 -1.38983777 0 0 Z " fill="#A79C99" transform="translate(261,109)"/>
<path d="M0 0 C0.309375 0.639375 0.61875 1.27875 0.9375 1.9375 C1.8345163 3.93610821 1.8345163 3.93610821 3 5 C3.4051844 7.56419619 3.75446546 10.11141859 4.0625 12.6875 C4.15337891 13.39583984 4.24425781 14.10417969 4.33789062 14.83398438 C4.83918087 18.91591925 5.0973592 22.87846056 5 27 C2.66674444 23.16534521 2.10816449 18.97909931 1.375 14.625 C1.2409375 13.8825 1.106875 13.14 0.96875 12.375 C0.24566328 8.19880525 -0.14862783 4.25616073 0 0 Z " fill="#C12C2E" transform="translate(260,277)"/>
<path d="M0 0 C0.33 0.66 0.66 1.32 1 2 C3.32525266 2.25577779 5.66262127 2.40575086 8 2.5 C10.33737873 2.59424914 12.67474734 2.74422221 15 3 C15.33 3.66 15.66 4.32 16 5 C15.19175781 4.96519531 14.38351563 4.93039062 13.55078125 4.89453125 C11.94783203 4.85392578 11.94783203 4.85392578 10.3125 4.8125 C9.25675781 4.77769531 8.20101562 4.74289062 7.11328125 4.70703125 C3.64577232 5.03333385 1.81567552 6.00969875 -1 8 C-0.67 6.68 -0.34 5.36 0 4 C-0.66 4 -1.32 4 -2 4 C-1.34 2.68 -0.68 1.36 0 0 Z " fill="#D02730" transform="translate(195,264)"/>
<path d="M0 0 C2 1 2 1 4.25 4 C6.34914722 6.61923444 6.86289701 6.96378411 10.3125 7.875 C11.199375 7.91625 12.08625 7.9575 13 8 C12.34 8.66 11.68 9.32 11 10 C7.48437733 9.80468763 4.73741727 9.35925457 1.5625 7.8125 C0 6 0 6 -0.25 2.8125 C-0.1675 1.884375 -0.085 0.95625 0 0 Z " fill="#6C5F5E" transform="translate(182,73)"/>
<path d="M0 0 C0.66 0 1.32 0 2 0 C2.67756882 1.55780332 3.34159457 3.12150096 4 4.6875 C4.37125 5.55761719 4.7425 6.42773438 5.125 7.32421875 C6.01870488 10.0572002 6.16449676 12.14700934 6 15 C5.34 15 4.68 15 4 15 C3.32532438 13.25307205 2.66055844 11.50231475 2 9.75 C1.62875 8.77546875 1.2575 7.8009375 0.875 6.796875 C0 4 0 4 0 0 Z " fill="#E37578" transform="translate(110,329)"/>
<path d="M0 0 C0.33 0 0.66 0 1 0 C1.02689216 1.47906892 1.04634621 2.95827483 1.0625 4.4375 C1.07410156 5.26121094 1.08570313 6.08492188 1.09765625 6.93359375 C1 9 1 9 0 10 C-0.12375 11.0725 -0.2475 12.145 -0.375 13.25 C-0.98873013 16.9323808 -1.89293992 18.97682684 -4 22 C-5.32612202 19.34775596 -4.74159076 18.27247172 -4.00390625 15.4296875 C-3.77509766 14.53378906 -3.54628906 13.63789063 -3.31054688 12.71484375 C-3.06369141 11.77769531 -2.81683594 10.84054687 -2.5625 9.875 C-2.31951172 8.93011719 -2.07652344 7.98523438 -1.82617188 7.01171875 C-1.22371772 4.67277909 -0.61474965 2.33573259 0 0 Z " fill="#3D0707" transform="translate(234,308)"/>
<path d="M0 0 C0.66 0.33 1.32 0.66 2 1 C1.67 1.99 1.34 2.98 1 4 C0.01 4 -0.98 4 -2 4 C-2 5.32 -2 6.64 -2 8 C-4.97 9.65 -7.94 11.3 -11 13 C-9.07859132 9.15718264 -7.4073184 7.19568073 -4.375 4.25 C-3.55773437 3.45078125 -2.74046875 2.6515625 -1.8984375 1.828125 C-0.95871094 0.92320312 -0.95871094 0.92320312 0 0 Z " fill="#E27A75" transform="translate(149,177)"/>
<path d="M0 0 C0 0.66 0 1.32 0 2 C-0.58007812 2.02578125 -1.16015625 2.0515625 -1.7578125 2.078125 C-7.27142342 2.47845319 -10.53140938 3.51231951 -15 7 C-15.99 7.495 -15.99 7.495 -17 8 C-17 6.68 -17 5.36 -17 4 C-11.02667877 0.5246131 -6.88490225 -0.57374185 0 0 Z " fill="#C12A2F" transform="translate(350,325)"/>
<path d="M0 0 C1.10452257 3.76878627 0.68900462 5.96494449 -0.4375 9.75 C-0.72496094 10.73484375 -1.01242188 11.7196875 -1.30859375 12.734375 C-1.65083984 13.85585937 -1.65083984 13.85585937 -2 15 C-2.66 15 -3.32 15 -4 15 C-4.33 16.65 -4.66 18.3 -5 20 C-6.02826931 16.86332092 -5.99386675 15.16815258 -4.78515625 12.109375 C-4.37426758 11.04589844 -4.37426758 11.04589844 -3.95507812 9.9609375 C-3.66052734 9.23132813 -3.36597656 8.50171875 -3.0625 7.75 C-2.77181641 7.00492188 -2.48113281 6.25984375 -2.18164062 5.4921875 C-1.46426278 3.65758186 -0.73342561 1.82824935 0 0 Z " fill="#ED9293" transform="translate(114,226)"/>
<path d="M0 0 C0.33 0 0.66 0 1 0 C1.05418326 2.08304538 1.09287551 4.16649768 1.125 6.25 C1.14820313 7.41015625 1.17140625 8.5703125 1.1953125 9.765625 C1.0103949 12.82786046 0.60823023 14.44202751 -1 17 C-1.33 17 -1.66 17 -2 17 C-2.22084624 10.90218999 -2.01167675 5.78357065 0 0 Z " fill="#DE5D60" transform="translate(395,297)"/>
<path d="M0 0 C0.33 0 0.66 0 1 0 C1 1.98 1 3.96 1 6 C0.34 6 -0.32 6 -1 6 C-0.938125 7.3303125 -0.938125 7.3303125 -0.875 8.6875 C-0.99897246 11.97277013 -1.61387904 14.05449295 -3 17 C-3.66 16.67 -4.32 16.34 -5 16 C-3.22319085 4.06402325 -3.22319085 4.06402325 0 0 Z " fill="#DD5256" transform="translate(118,218)"/>
<path d="M0 0 C-1.95245185 1.19714555 -3.91214997 2.38248074 -5.875 3.5625 C-6.96554687 4.22378906 -8.05609375 4.88507813 -9.1796875 5.56640625 C-10.57574219 6.27603516 -10.57574219 6.27603516 -12 7 C-12.66 6.67 -13.32 6.34 -14 6 C-9.95829675 0.24363477 -9.95829675 0.24363477 -5.3125 -0.9375 C-2 -1 -2 -1 0 0 Z " fill="#E67978" transform="translate(329,409)"/>
<path d="M0 0 C0 0.33 0 0.66 0 1 C-0.72445313 1.08636719 -1.44890625 1.17273438 -2.1953125 1.26171875 C-8.67033337 2.20275512 -12.40926516 3.28519125 -17 8 C-16.42415568 5.61435923 -15.77772405 3.33317216 -15 1 C-10.03926578 -0.32286246 -5.08888488 -0.08893197 0 0 Z " fill="#C42A2F" transform="translate(299,267)"/>
<path d="M0 0 C0.66 0 1.32 0 2 0 C3.3566879 7.40011581 3.3566879 7.40011581 1.625 10.3125 C0.820625 11.1478125 0.820625 11.1478125 0 12 C-0.33 12.99 -0.66 13.98 -1 15 C-2.32 14.67 -3.64 14.34 -5 14 C-4.01 13.67 -3.02 13.34 -2 13 C-1.34 8.71 -0.68 4.42 0 0 Z " fill="#C82D32" transform="translate(169,226)"/>
<path d="M0 0 C0.66 0.33 1.32 0.66 2 1 C0.35 2.98 -1.3 4.96 -3 7 C1.62 7 6.24 7 11 7 C11 7.33 11 7.66 11 8 C5.39 8 -0.22 8 -6 8 C-6 5 -6 5 -4.6875 3.61328125 C-3.125 2.40885417 -1.5625 1.20442708 0 0 Z " fill="#654B49" transform="translate(157,170)"/>
<path d="M0 0 C1 2 1 2 0.75 4.0625 C0.5025 4.701875 0.255 5.34125 0 6 C-0.99 6.33 -1.98 6.66 -3 7 C-3.7425 8.2375 -3.7425 8.2375 -4.5 9.5 C-6 12 -6 12 -9 13 C-7.7580393 9.56072421 -6.44259716 6.74792181 -4 4 C-3.34 4 -2.68 4 -2 4 C-1.34 2.68 -0.68 1.36 0 0 Z " fill="#E87F7D" transform="translate(137,190)"/>
<path d="M0 0 C0.33 0.99 0.66 1.98 1 3 C-0.98 3.99 -0.98 3.99 -3 5 C-3 9.62 -3 14.24 -3 19 C-5.58215672 16.41784328 -5.29794465 15.27296873 -5.3125 11.6875 C-5.23827601 7.33112266 -4.95324088 4.40758563 -2 1 C-1.34 0.67 -0.68 0.34 0 0 Z " fill="#350204" transform="translate(195,271)"/>
<path d="M0 0 C0.33 0.99 0.66 1.98 1 3 C0.41992188 3.10957031 -0.16015625 3.21914062 -0.7578125 3.33203125 C-5.59746277 4.3143365 -9.65366116 5.54821911 -14 8 C-14.66 7.34 -15.32 6.68 -16 6 C-13.89615302 5.18667257 -11.79191143 4.37436583 -9.6875 3.5625 C-8.51574219 3.11003906 -7.34398437 2.65757813 -6.13671875 2.19140625 C-4.10617185 1.42015245 -2.06062074 0.68687358 0 0 Z " fill="#988B8A" transform="translate(225,111)"/>
<path d="M0 0 C2.08379509 3.84700632 3.49686624 7.90054429 5 12 C4.34 12 3.68 12 3 12 C1.4921875 10.3203125 1.4921875 10.3203125 -0.125 8.125 C-0.66382813 7.40570313 -1.20265625 6.68640625 -1.7578125 5.9453125 C-3 4 -3 4 -3 2 C-2.01 1.34 -1.02 0.68 0 0 Z " fill="#EB8384" transform="translate(131,365)"/>
<path d="M0 0 C3.79062273 4.82442893 5.28418033 7.74803275 5 14 C4.67 13.34 4.34 12.68 4 12 C3.34 12 2.68 12 2 12 C0.70756464 7.8803623 -0.26252625 4.33168317 0 0 Z " fill="#DF595C" transform="translate(389,242)"/>
<path d="M0 0 C2.66666667 2.66666667 5.33333333 5.33333333 8 8 C7.67 8.66 7.34 9.32 7 10 C4.0625 8.9375 4.0625 8.9375 1 7 C0.125 3.3125 0.125 3.3125 0 0 Z " fill="#E77176" transform="translate(362,190)"/>
<path d="M0 0 C2.49361571 1.20381448 4.68143083 2.45428722 7 4 C7 4.66 7 5.32 7 6 C7.66 6 8.32 6 9 6 C9 6.99 9 7.98 9 9 C7.02 9 5.04 9 3 9 C3.2475 8.443125 3.495 7.88625 3.75 7.3125 C4.28353676 4.75949064 4.28353676 4.75949064 2.0625 2.25 C1.381875 1.5075 0.70125 0.765 0 0 Z " fill="#826C6C" transform="translate(340,169)"/>
<path d="M0 0 C5.35048061 0.37328935 7.50912907 1.9957657 11 6 C10.01 6.495 10.01 6.495 9 7 C7.4972763 6.02501855 5.99788037 5.04490611 4.5 4.0625 C3.6646875 3.51722656 2.829375 2.97195313 1.96875 2.41015625 C1.3190625 1.94480469 0.669375 1.47945313 0 1 C0 0.67 0 0.34 0 0 Z " fill="#E58281" transform="translate(168,406)"/>
<path d="M0 0 C0 3.99904969 -1.72586967 5.80200422 -4 9 C-5.42944945 6.64561267 -6.08661261 5.51967567 -5.625 2.75 C-5.41875 2.1725 -5.2125 1.595 -5 1 C-3.35 0.67 -1.7 0.34 0 0 Z " fill="#E86465" transform="translate(376,359)"/>
<path d="M0 0 C0.33 0 0.66 0 1 0 C1.56221257 11.88975473 1.56221257 11.88975473 -2 16 C-2.66 16.33 -3.32 16.66 -4 17 C-3.25 12.25 -3.25 12.25 -1 10 C-0.53837573 7.56747339 -0.53837573 7.56747339 -0.375 4.875 C-0.30023438 3.96492187 -0.22546875 3.05484375 -0.1484375 2.1171875 C-0.09945313 1.41851562 -0.05046875 0.71984375 0 0 Z " fill="#2B0102" transform="translate(359,224)"/>
<path d="M0 0 C1.65 0 3.3 0 5 0 C7.44064587 5.64399358 7.19289099 10.97751478 7 17 C6.67 17 6.34 17 6 17 C5.95101563 16.32453125 5.90203125 15.6490625 5.8515625 14.953125 C5.77679688 14.06109375 5.70203125 13.1690625 5.625 12.25 C5.52058594 10.92742187 5.52058594 10.92742187 5.4140625 9.578125 C4.73927748 5.37663336 3.11876717 2.83524288 0 0 Z " fill="#B12428" transform="translate(354,217)"/>
<path d="M0 0 C1 3 1 3 0.00390625 5.48046875 C-0.47175781 6.37378906 -0.94742187 7.26710938 -1.4375 8.1875 C-1.91058594 9.08855469 -2.38367188 9.98960937 -2.87109375 10.91796875 C-3.24363281 11.60503906 -3.61617188 12.29210937 -4 13 C-4.33 13 -4.66 13 -5 13 C-5 11.35 -5 9.7 -5 8 C-4.34 8 -3.68 8 -3 8 C-3.0928125 6.8553125 -3.0928125 6.8553125 -3.1875 5.6875 C-3 3 -3 3 -1.5 1.1875 C-1.005 0.795625 -0.51 0.40375 0 0 Z " fill="#E67072" transform="translate(386,338)"/>
<path d="M0 0 C0.76413307 2.48343248 0.98679484 4.31032118 0.875 6.9375 C1.01945278 10.47659303 2.12609951 12.06693836 4 15 C3.67 15.66 3.34 16.32 3 17 C0.25559133 14.49423556 -0.90122072 12.62985806 -1.1328125 8.80859375 C-1.13023437 8.02613281 -1.12765625 7.24367188 -1.125 6.4375 C-1.12757813 5.65246094 -1.13015625 4.86742187 -1.1328125 4.05859375 C-1 2 -1 2 0 0 Z " fill="#310102" transform="translate(145,335)"/>
<path d="M0 0 C0.66 0 1.32 0 2 0 C1.48594831 4.96916636 0.76615118 9.29026351 -1 14 C-1.33 14 -1.66 14 -2 14 C-2.33 11.69 -2.66 9.38 -3 7 C-2.34 6.67 -1.68 6.34 -1 6 C-0.34227572 2.97065509 -0.34227572 2.97065509 0 0 Z " fill="#C82D32" transform="translate(229,320)"/>
<path d="M0 0 C0.33 0 0.66 0 1 0 C0.63495936 5.66442374 -0.0554321 10.00703705 -3 15 C-3.99 14.67 -4.98 14.34 -6 14 C-5.071875 12.7625 -5.071875 12.7625 -4.125 11.5 C-1.66173499 7.8487774 -0.8868362 4.28637498 0 0 Z " fill="#CB2D33" transform="translate(311,280)"/>
<path d="M0 0 C0.99 0.66 1.98 1.32 3 2 C3 2.66 3 3.32 3 4 C-2.94 3.01 -2.94 3.01 -9 2 C-5.53001271 -0.31332486 -4.07490752 -0.33957563 0 0 Z " fill="#CA2B30" transform="translate(159,213)"/>
<path d="M0 0 C0.33 0.66 0.66 1.32 1 2 C2.32 2 3.64 2 5 2 C3.61410019 5.09162264 2.50816459 6.49183541 0 9 C0 6.03 0 3.06 0 0 Z " fill="#E66566" transform="translate(363,370)"/>
<path d="M0 0 C0.66 0 1.32 0 2 0 C2 2.31 2 4.62 2 7 C1.34 7 0.68 7 0 7 C-0.33 8.32 -0.66 9.64 -1 11 C-2.41687119 6.74938644 -1.19320039 4.28148375 0 0 Z " fill="#CB2B2D" transform="translate(361,339)"/>
<path d="M0 0 C3.37191712 5.05787568 4.23926553 7.77909633 4 14 C1.8553857 11.8553857 1.55435397 10.98260002 0.875 8.125 C0.70742188 7.44695312 0.53984375 6.76890625 0.3671875 6.0703125 C0 4 0 4 0 0 Z " fill="#C02D31" transform="translate(269,320)"/>
<path d="M0 0 C-5.41538462 4.06153846 -5.41538462 4.06153846 -8.375 3.75 C-8.91125 3.5025 -9.4475 3.255 -10 3 C-9.01 3 -8.02 3 -7 3 C-7 2.01 -7 1.02 -7 0 C-3.86650268 -1.04449911 -3.01031744 -0.93423645 0 0 Z " fill="#2F0404" transform="translate(307,293)"/>
<path d="M0 0 C2.72426311 2.35277269 3.8141763 4.62496331 5 8 C3.68 8 2.36 8 1 8 C-0.35439668 5.29120665 -0.06501451 2.99066732 0 0 Z " fill="#E66B6C" transform="translate(372,203)"/>
<path d="M0 0 C3.66881155 0.70554068 6.70450534 2.27735506 10 4 C9.67 4.66 9.34 5.32 9 6 C6.69 5.34 4.38 4.68 2 4 C2 3.34 2 2.68 2 2 C1.34 2 0.68 2 0 2 C0 1.34 0 0.68 0 0 Z " fill="#E3454A" transform="translate(362,197)"/>
<path d="M0 0 C0.33 1.32 0.66 2.64 1 4 C0.01 3.01 -0.98 2.02 -2 1 C-2.66 2.65 -3.32 4.3 -4 6 C-4.66 5.34 -5.32 4.68 -6 4 C-6 2.68 -6 1.36 -6 0 C-3.50907189 -1.24546405 -2.58919267 -0.7767578 0 0 Z " fill="#5F5352" transform="translate(229,105)"/>
<path d="M0 0 C0.33 0.99 0.66 1.98 1 3 C-0.1446875 3.8971875 -0.1446875 3.8971875 -1.3125 4.8125 C-3.3483575 6.46959332 -5.1978279 8.10297674 -7 10 C-5.6062718 5.56541027 -3.39417765 3.12621626 0 0 Z " fill="#948484" transform="translate(285,84)"/>
<path d="M0 0 C3.10551666 3.10551666 3.81323934 4.89198233 5 9 C3.68 9 2.36 9 1 9 C0.67 6.03 0.34 3.06 0 0 Z " fill="#EA7B7E" transform="translate(377,211)"/>
<path d="M0 0 C5.445 1.485 5.445 1.485 11 3 C11 3.33 11 3.66 11 4 C9.54176788 4.0270043 8.08339325 4.04639787 6.625 4.0625 C5.81289062 4.07410156 5.00078125 4.08570313 4.1640625 4.09765625 C2 4 2 4 0 3 C0 2.01 0 1.02 0 0 Z " fill="#CF2A34" transform="translate(150,354)"/>
<path d="M0 0 C-1.24976756 3.65316671 -1.67098753 4.78065836 -5 7 C-4.625 4.0625 -4.625 4.0625 -4 1 C-2 0 -2 0 0 0 Z " fill="#280101" transform="translate(359,347)"/>
<path d="M0 0 C0.33 0.99 0.66 1.98 1 3 C0.34 3 -0.32 3 -1 3 C-1 3.66 -1 4.32 -1 5 C-2.9375 4.6875 -2.9375 4.6875 -5 4 C-5.33 3.01 -5.66 2.02 -6 1 C-4.02 0.67 -2.04 0.34 0 0 Z " fill="#E34F55" transform="translate(184,410)"/>
<path d="M0 0 C1.00000429 4.00001715 0.80688405 6.05523353 0 10 C-0.99 10 -1.98 10 -3 10 C-2.01 6.7 -1.02 3.4 0 0 Z " fill="#350504" transform="translate(223,347)"/>
<path d="M0 0 C2 3 2 3 3 6 C0.69 6.33 -1.62 6.66 -4 7 C-2.68 4.69 -1.36 2.38 0 0 Z " fill="#CB292B" transform="translate(172,347)"/>
<path d="M0 0 C0.66 0 1.32 0 2 0 C2.36629408 4.27343092 1.40814077 6.48812804 -1 10 C-2.27351308 7.45297384 -1.80191925 6.5717055 -1.0625 3.875 C-0.86785156 3.15054687 -0.67320312 2.42609375 -0.47265625 1.6796875 C-0.31667969 1.12539063 -0.16070312 0.57109375 0 0 Z " fill="#320304" transform="translate(231,320)"/>
<path d="M0 0 C0.33 0.66 0.66 1.32 1 2 C1.99 2 2.98 2 4 2 C4.33 3.32 4.66 4.64 5 6 C3.68 6 2.36 6 1 6 C0.67 4.02 0.34 2.04 0 0 Z " fill="#E1494E" transform="translate(379,218)"/>
<path d="M0 0 C2.72426311 2.35277269 3.8141763 4.62496331 5 8 C4.01 8 3.02 8 2 8 C1.34 5.36 0.68 2.72 0 0 Z " fill="#2B0403" transform="translate(304,410)"/>
<path d="M0 0 C0.33 0 0.66 0 1 0 C1.33 2.64 1.66 5.28 2 8 C1.01 8.33 0.02 8.66 -1 9 C-1.125 2.25 -1.125 2.25 0 0 Z " fill="#E67B79" transform="translate(107,247)"/>
<path d="M0 0 C0 0.66 0 1.32 0 2 C-0.99 2 -1.98 2 -3 2 C-3 2.99 -3 3.98 -3 5 C-4.98 5.99 -4.98 5.99 -7 7 C-4.60526316 0 -4.60526316 0 0 0 Z " fill="#340203" transform="translate(148,217)"/>
</svg>
